<mxfile host="app.diagrams.net" agent="Mozilla/5.0 (X11; Ubuntu; Linux x86_64; rv:136.0) Gecko/20100101 Firefox/136.0" version="26.1.3">
  <diagram name="Page-1" id="gyMy8YsChSyWfYb3dnqF">
    <mxGraphModel dx="989" dy="541" grid="1" gridSize="10" guides="1" tooltips="1" connect="1" arrows="1" fold="1" page="1" pageScale="1" pageWidth="850" pageHeight="1100" math="0" shadow="0">
      <root>
        <mxCell id="0" />
        <mxCell id="1" parent="0" />
        <mxCell id="B9hNTx2DcEWOE2ALYtc8-25" value="" style="rounded=1;whiteSpace=wrap;html=1;dashed=1;" vertex="1" parent="1">
          <mxGeometry x="333.75" y="840" width="197.5" height="100" as="geometry" />
        </mxCell>
        <mxCell id="B9hNTx2DcEWOE2ALYtc8-20" value="" style="rounded=1;whiteSpace=wrap;html=1;dashed=1;" vertex="1" parent="1">
          <mxGeometry x="660" y="430" width="130" height="290" as="geometry" />
        </mxCell>
        <mxCell id="B9hNTx2DcEWOE2ALYtc8-8" value="" style="rounded=1;whiteSpace=wrap;html=1;dashed=1;" vertex="1" parent="1">
          <mxGeometry x="305" y="330" width="255" height="470" as="geometry" />
        </mxCell>
        <mxCell id="B9hNTx2DcEWOE2ALYtc8-7" value="" style="rounded=1;whiteSpace=wrap;html=1;dashed=1;" vertex="1" parent="1">
          <mxGeometry x="30" y="520" width="170" height="170" as="geometry" />
        </mxCell>
        <mxCell id="B9hNTx2DcEWOE2ALYtc8-1" value="Bucket" style="sketch=0;outlineConnect=0;fontColor=#232F3E;gradientColor=none;strokeColor=#232F3E;fillColor=#ffffff;dashed=0;verticalLabelPosition=bottom;verticalAlign=top;align=center;html=1;fontSize=12;fontStyle=0;aspect=fixed;shape=mxgraph.aws4.resourceIcon;resIcon=mxgraph.aws4.bucket;" vertex="1" parent="1">
          <mxGeometry x="375" y="350" width="115" height="115" as="geometry" />
        </mxCell>
        <mxCell id="B9hNTx2DcEWOE2ALYtc8-2" value="" style="rounded=0;whiteSpace=wrap;html=1;fillColor=#ffe6cc;strokeColor=#d79b00;" vertex="1" parent="1">
          <mxGeometry x="40" y="570" width="60" height="30" as="geometry" />
        </mxCell>
        <mxCell id="B9hNTx2DcEWOE2ALYtc8-3" value="" style="rounded=0;whiteSpace=wrap;html=1;fillColor=#ffe6cc;strokeColor=#d79b00;" vertex="1" parent="1">
          <mxGeometry x="40" y="620" width="60" height="30" as="geometry" />
        </mxCell>
        <mxCell id="B9hNTx2DcEWOE2ALYtc8-4" value="" style="rounded=0;whiteSpace=wrap;html=1;fillColor=#ffe6cc;strokeColor=#d79b00;" vertex="1" parent="1">
          <mxGeometry x="120" y="540" width="60" height="30" as="geometry" />
        </mxCell>
        <mxCell id="B9hNTx2DcEWOE2ALYtc8-5" value="" style="rounded=0;whiteSpace=wrap;html=1;fillColor=#ffe6cc;strokeColor=#d79b00;" vertex="1" parent="1">
          <mxGeometry x="120" y="590" width="60" height="30" as="geometry" />
        </mxCell>
        <mxCell id="B9hNTx2DcEWOE2ALYtc8-6" value="" style="rounded=0;whiteSpace=wrap;html=1;fillColor=#ffe6cc;strokeColor=#d79b00;" vertex="1" parent="1">
          <mxGeometry x="120" y="640" width="60" height="30" as="geometry" />
        </mxCell>
        <mxCell id="B9hNTx2DcEWOE2ALYtc8-9" value="" style="shape=flexArrow;endArrow=classic;html=1;rounded=0;entryX=0.5;entryY=0;entryDx=0;entryDy=0;" edge="1" parent="1" target="B9hNTx2DcEWOE2ALYtc8-8">
          <mxGeometry width="50" height="50" relative="1" as="geometry">
            <mxPoint x="433" y="180" as="sourcePoint" />
            <mxPoint x="350" y="420" as="targetPoint" />
          </mxGeometry>
        </mxCell>
        <mxCell id="B9hNTx2DcEWOE2ALYtc8-10" value="" style="shape=mxgraph.cisco.misc.token;html=1;pointerEvents=1;dashed=0;fillColor=#036897;strokeColor=#ffffff;strokeWidth=2;verticalLabelPosition=bottom;verticalAlign=top;align=center;outlineConnect=0;" vertex="1" parent="1">
          <mxGeometry x="450" y="180" width="29" height="31" as="geometry" />
        </mxCell>
        <mxCell id="B9hNTx2DcEWOE2ALYtc8-11" value="" style="shape=mxgraph.cisco.misc.token;html=1;pointerEvents=1;dashed=0;fillColor=#036897;strokeColor=#ffffff;strokeWidth=2;verticalLabelPosition=bottom;verticalAlign=top;align=center;outlineConnect=0;" vertex="1" parent="1">
          <mxGeometry x="450" y="230" width="29" height="31" as="geometry" />
        </mxCell>
        <mxCell id="B9hNTx2DcEWOE2ALYtc8-12" value="" style="shape=mxgraph.cisco.misc.token;html=1;pointerEvents=1;dashed=0;fillColor=#036897;strokeColor=#ffffff;strokeWidth=2;verticalLabelPosition=bottom;verticalAlign=top;align=center;outlineConnect=0;" vertex="1" parent="1">
          <mxGeometry x="450" y="280" width="29" height="31" as="geometry" />
        </mxCell>
        <mxCell id="B9hNTx2DcEWOE2ALYtc8-13" value="Refiller" style="text;html=1;align=center;verticalAlign=middle;whiteSpace=wrap;rounded=0;" vertex="1" parent="1">
          <mxGeometry x="365" y="231" width="60" height="30" as="geometry" />
        </mxCell>
        <mxCell id="B9hNTx2DcEWOE2ALYtc8-14" value="" style="rounded=0;whiteSpace=wrap;html=1;fillColor=#ffe6cc;strokeColor=#d79b00;" vertex="1" parent="1">
          <mxGeometry x="700" y="480" width="60" height="30" as="geometry" />
        </mxCell>
        <mxCell id="B9hNTx2DcEWOE2ALYtc8-15" value="" style="rounded=0;whiteSpace=wrap;html=1;fillColor=#ffe6cc;strokeColor=#d79b00;" vertex="1" parent="1">
          <mxGeometry x="700" y="570" width="60" height="30" as="geometry" />
        </mxCell>
        <mxCell id="B9hNTx2DcEWOE2ALYtc8-16" value="" style="rounded=0;whiteSpace=wrap;html=1;fillColor=#ffe6cc;strokeColor=#d79b00;" vertex="1" parent="1">
          <mxGeometry x="700" y="660" width="60" height="30" as="geometry" />
        </mxCell>
        <mxCell id="B9hNTx2DcEWOE2ALYtc8-17" value="" style="shape=mxgraph.cisco.misc.token;html=1;pointerEvents=1;dashed=0;fillColor=#036897;strokeColor=#ffffff;strokeWidth=2;verticalLabelPosition=bottom;verticalAlign=top;align=center;outlineConnect=0;" vertex="1" parent="1">
          <mxGeometry x="715.5" y="449" width="29" height="31" as="geometry" />
        </mxCell>
        <mxCell id="B9hNTx2DcEWOE2ALYtc8-18" value="" style="shape=mxgraph.cisco.misc.token;html=1;pointerEvents=1;dashed=0;fillColor=#036897;strokeColor=#ffffff;strokeWidth=2;verticalLabelPosition=bottom;verticalAlign=top;align=center;outlineConnect=0;" vertex="1" parent="1">
          <mxGeometry x="715.5" y="540" width="29" height="31" as="geometry" />
        </mxCell>
        <mxCell id="B9hNTx2DcEWOE2ALYtc8-19" value="" style="shape=mxgraph.cisco.misc.token;html=1;pointerEvents=1;dashed=0;fillColor=#036897;strokeColor=#ffffff;strokeWidth=2;verticalLabelPosition=bottom;verticalAlign=top;align=center;outlineConnect=0;" vertex="1" parent="1">
          <mxGeometry x="715.5" y="630" width="29" height="31" as="geometry" />
        </mxCell>
        <mxCell id="B9hNTx2DcEWOE2ALYtc8-21" value="" style="endArrow=classic;html=1;rounded=0;exitX=1;exitY=0.5;exitDx=0;exitDy=0;entryX=0;entryY=0.5;entryDx=0;entryDy=0;" edge="1" parent="1" source="B9hNTx2DcEWOE2ALYtc8-7" target="B9hNTx2DcEWOE2ALYtc8-29">
          <mxGeometry width="50" height="50" relative="1" as="geometry">
            <mxPoint x="300" y="470" as="sourcePoint" />
            <mxPoint x="300" y="605" as="targetPoint" />
          </mxGeometry>
        </mxCell>
        <mxCell id="B9hNTx2DcEWOE2ALYtc8-22" value="" style="endArrow=classic;html=1;rounded=0;exitX=1;exitY=0.5;exitDx=0;exitDy=0;" edge="1" parent="1" source="B9hNTx2DcEWOE2ALYtc8-29">
          <mxGeometry width="50" height="50" relative="1" as="geometry">
            <mxPoint x="560" y="604.5" as="sourcePoint" />
            <mxPoint x="660" y="605" as="targetPoint" />
          </mxGeometry>
        </mxCell>
        <mxCell id="B9hNTx2DcEWOE2ALYtc8-23" value="" style="rounded=0;whiteSpace=wrap;html=1;fillColor=#f5f5f5;strokeColor=#666666;fontColor=#333333;" vertex="1" parent="1">
          <mxGeometry x="362.5" y="870" width="60" height="30" as="geometry" />
        </mxCell>
        <mxCell id="B9hNTx2DcEWOE2ALYtc8-24" value="" style="rounded=0;whiteSpace=wrap;html=1;fillColor=#f5f5f5;strokeColor=#666666;fontColor=#333333;" vertex="1" parent="1">
          <mxGeometry x="452.5" y="870" width="60" height="30" as="geometry" />
        </mxCell>
        <mxCell id="B9hNTx2DcEWOE2ALYtc8-27" value="" style="endArrow=classic;html=1;rounded=0;entryX=0.5;entryY=0;entryDx=0;entryDy=0;exitX=0.5;exitY=1;exitDx=0;exitDy=0;" edge="1" parent="1" source="B9hNTx2DcEWOE2ALYtc8-29" target="B9hNTx2DcEWOE2ALYtc8-25">
          <mxGeometry width="50" height="50" relative="1" as="geometry">
            <mxPoint x="300" y="680" as="sourcePoint" />
            <mxPoint x="350" y="630" as="targetPoint" />
          </mxGeometry>
        </mxCell>
        <mxCell id="B9hNTx2DcEWOE2ALYtc8-28" value="no, drop requests" style="text;html=1;align=center;verticalAlign=middle;whiteSpace=wrap;rounded=0;" vertex="1" parent="1">
          <mxGeometry x="440" y="800" width="60" height="30" as="geometry" />
        </mxCell>
        <mxCell id="B9hNTx2DcEWOE2ALYtc8-29" value="enough tokens?" style="rhombus;whiteSpace=wrap;html=1;" vertex="1" parent="1">
          <mxGeometry x="392.5" y="565" width="80" height="80" as="geometry" />
        </mxCell>
      </root>
    </mxGraphModel>
  </diagram>
</mxfile>
